<svg xmlns="http://www.w3.org/2000/svg" xmlns:xlink="http://www.w3.org/1999/xlink" viewBox="0 0 27.157 100"><defs><style>.a{fill:url(#a);}</style><linearGradient id="a" x1="50" y1="100" x2="50" y2="3.749" gradientUnits="userSpaceOnUse"><stop offset="0.031" stop-color="#ccc" stop-opacity="0.8"/><stop offset="0.033" stop-color="#cdcac9" stop-opacity="0.804"/><stop offset="0.053" stop-color="#d6ac9d" stop-opacity="0.856"/><stop offset="0.075" stop-color="#df9377" stop-opacity="0.901"/><stop offset="0.1" stop-color="#e57e59" stop-opacity="0.937"/><stop offset="0.129" stop-color="#eb6e41" stop-opacity="0.965"/><stop offset="0.163" stop-color="#ee6230" stop-opacity="0.985"/><stop offset="0.208" stop-color="#f05c27" stop-opacity="0.997"/><stop offset="0.312" stop-color="#f15a24"/><stop offset="0.344" stop-color="#ef5d29" stop-opacity="0.99"/><stop offset="0.375" stop-color="#e96637" stop-opacity="0.96"/><stop offset="0.405" stop-color="#df754f" stop-opacity="0.911"/><stop offset="0.435" stop-color="#d08970" stop-opacity="0.841"/><stop offset="0.464" stop-color="#bea49a" stop-opacity="0.751"/><stop offset="0.478" stop-color="#b3b3b3" stop-opacity="0.7"/></linearGradient></defs><path class="a" d="M41.068,33.757a20.339,20.339,0,0,1-.14,2.74,1.6,1.6,0,0,1-1.44.868A1.853,1.853,0,0,1,37.9,35.637c0-.721-.352-19.759-.467-21.341C36.989,8.24,40.436.015,49.375,0,59.611-.017,62.221,8.92,62.226,12.525l.065,39.223s-2.277,18.718-2.268,24.23c.01,6.056,5.739,21.487,2.632,22.347-5.764,1.6-18.46,2.774-25.518.042-2.6-1.005,2.711-17.332,2.7-23.221-.009-5.336-2.778-23.789-2.778-23.789l4.037-.151s-.17-15.43.118-16.007a3.6,3.6,0,0,1,2.739,0c.289.72-.985,15-.985,15L55.487,35.031l-.016-9.661c0-3.317-3.323-4.753-3.323-4.753l-.01-5.769a3.476,3.476,0,0,0,.573-2.164,2.581,2.581,0,0,0-2.887-2.59,2.629,2.629,0,0,0-2.735,2.744,3.187,3.187,0,0,0,.868,2.017l.01,5.768S44.8,21.782,44.8,24.955l.011,6.777C44.816,33.318,42.942,33.754,41.068,33.757Z" transform="translate(-36.421 0)"/></svg>