<svg xmlns="http://www.w3.org/2000/svg" viewBox="0 0 512 512" fill="currentColor">
  <path d="M488.6 104.1c16.7 18.1 24.4 39.7 23.3 65.7v202.4c-.4 26.4-9.2 48.1-26.5 65.1-17.2 17-39.1 25.9-65.5 26.7H92.02c-26.45-.8-48.21-9.8-65.28-27.2C9.682 419.4.767 396.5 0 368.2V169.8c.767-26 9.682-47.6 26.74-65.7C43.81 87.75 65.57 78.77 92.02 78h29.38L96.05 52.19c-5.75-5.73-8.63-13-8.63-21.79 0-8.8 2.88-16.06 8.63-21.797C101.8 2.868 109.1 0 117.9 0s16.1 2.868 21.9 8.603L213.8 78h88.07l74.1-69.4c5.7-5.735 13-8.603 21.8-8.603 8.8 0 16.1 2.868 21.9 8.603 5.7 5.737 8.6 12.997 8.6 21.797 0 8.79-2.9 16.06-8.6 21.79L394.3 78h29.65c26.4.77 48.1 9.75 64.65 26.1zm-38.1 69.7c-.4-9.6-3.7-17.8-10.7-24.8-7-7-15.2-10.6-24.8-10.8H97.12c-9.64.2-17.82 3.8-24.5 10.8-6.68 7-10.02 15.2-10.02 24.8v202.4c0 9.6 3.34 17.8 10.02 24.8 6.68 7 14.86 10.6 24.5 10.8h317.78c9.6-.2 17.8-3.8 24.8-10.8 7-7 10.3-15.2 10.7-24.8V173.8zm-135.9 153.6c-9.6 0-17.9-3.4-25.1-10.1-7.2-6.6-10.9-14.6-10.9-24 0-9.6 3.7-17.9 10.9-24.8 7.2-6.9 15.5-10.4 25.1-10.4 9.6 0 17.9 3.5 25.1 10.4 7.2 6.9 10.9 15.2 10.9 24.8 0 9.4-3.7 17.4-10.9 24-7.2 6.7-15.5 10.1-25.1 10.1zm-151.1 0c-9.6 0-17.9-3.4-25.1-10.1-7.2-6.6-10.9-14.6-10.9-24 0-9.6 3.7-17.9 10.9-24.8 7.2-6.9 15.5-10.4 25.1-10.4 9.6 0 17.9 3.5 25.1 10.4 7.2 6.9 10.9 15.2 10.9 24.8 0 9.4-3.7 17.4-10.9 24-7.2 6.7-15.5 10.1-25.1 10.1z"/>
</svg>